<svg xmlns="http://www.w3.org/2000/svg" xmlns:xlink="http://www.w3.org/1999/xlink" viewBox="0 0 300 300"><defs><style>.cls-1{fill:url(#linear-gradient);}.cls-2{fill:url(#linear-gradient-2);}.cls-3{fill:url(#linear-gradient-3);}.cls-4{fill:url(#linear-gradient-4);}.cls-5{fill:url(#linear-gradient-5);}.cls-6{fill:url(#linear-gradient-6);}.cls-7{fill:url(#linear-gradient-7);}.cls-8{fill:url(#linear-gradient-8);}.cls-9{fill:url(#linear-gradient-9);}.cls-10{fill:url(#linear-gradient-10);}.cls-11{fill:url(#linear-gradient-11);}.cls-12{fill:url(#linear-gradient-12);}.cls-13{fill:url(#linear-gradient-13);}.cls-14{fill:url(#linear-gradient-14);}.cls-15{fill:url(#linear-gradient-15);}.cls-16{fill:url(#linear-gradient-16);}.cls-17{fill:url(#linear-gradient-17);}.cls-18{fill:url(#linear-gradient-18);}.cls-19{fill:url(#linear-gradient-19);}.cls-20{fill:url(#linear-gradient-20);}.cls-21{fill:url(#linear-gradient-21);}.cls-22{fill:url(#linear-gradient-22);}.cls-23{fill:url(#linear-gradient-23);}</style><linearGradient id="linear-gradient" x1="122.4" y1="103.14" x2="227.43" y2="103.14" gradientUnits="userSpaceOnUse"><stop offset="0" stop-color="#fff"/><stop offset="0.33" stop-color="#fff"/><stop offset="0.52" stop-color="#fff"/><stop offset="0.73" stop-color="#fff"/><stop offset="1" stop-color="#fff"/></linearGradient><linearGradient id="linear-gradient-2" x1="72.54" y1="153" x2="177.57" y2="153" xlink:href="#linear-gradient"/><linearGradient id="linear-gradient-3" x1="62.25" y1="227.72" x2="75.75" y2="227.72" xlink:href="#linear-gradient"/><linearGradient id="linear-gradient-4" x1="88.82" y1="227.72" x2="104.8" y2="227.72" xlink:href="#linear-gradient"/><linearGradient id="linear-gradient-5" x1="118.92" y1="227.72" x2="135.13" y2="227.72" xlink:href="#linear-gradient"/><linearGradient id="linear-gradient-6" x1="149.26" y1="227.72" x2="158.51" y2="227.72" xlink:href="#linear-gradient"/><linearGradient id="linear-gradient-7" x1="170.53" y1="227.72" x2="185.48" y2="227.72" xlink:href="#linear-gradient"/><linearGradient id="linear-gradient-8" x1="199.18" y1="227.72" x2="212.48" y2="227.72" xlink:href="#linear-gradient"/><linearGradient id="linear-gradient-9" x1="226.19" y1="227.72" x2="237.72" y2="227.72" xlink:href="#linear-gradient"/><linearGradient id="linear-gradient-10" x1="71.98" y1="245.94" x2="77.77" y2="245.94" xlink:href="#linear-gradient"/><linearGradient id="linear-gradient-11" x1="83.79" y1="245.94" x2="88.63" y2="245.94" xlink:href="#linear-gradient"/><linearGradient id="linear-gradient-12" x1="95.53" y1="245.94" x2="99.86" y2="245.94" xlink:href="#linear-gradient"/><linearGradient id="linear-gradient-13" x1="106.53" y1="245.94" x2="107.56" y2="245.94" xlink:href="#linear-gradient"/><linearGradient id="linear-gradient-14" x1="114.69" y1="245.94" x2="119.76" y2="245.94" xlink:href="#linear-gradient"/><linearGradient id="linear-gradient-15" x1="126.9" y1="245.94" x2="131.23" y2="245.94" xlink:href="#linear-gradient"/><linearGradient id="linear-gradient-16" x1="145.65" y1="245.94" x2="150.49" y2="245.94" xlink:href="#linear-gradient"/><linearGradient id="linear-gradient-17" x1="157.16" y1="245.94" x2="162" y2="245.94" xlink:href="#linear-gradient"/><linearGradient id="linear-gradient-18" x1="168.9" y1="245.94" x2="173.22" y2="245.94" xlink:href="#linear-gradient"/><linearGradient id="linear-gradient-19" x1="179.31" y1="245.94" x2="184.27" y2="245.94" xlink:href="#linear-gradient"/><linearGradient id="linear-gradient-20" x1="199.05" y1="245.94" x2="203.78" y2="245.94" xlink:href="#linear-gradient"/><linearGradient id="linear-gradient-21" x1="210.92" y1="245.94" x2="215.24" y2="245.94" xlink:href="#linear-gradient"/><linearGradient id="linear-gradient-22" x1="221.91" y1="245.94" x2="226.87" y2="245.94" xlink:href="#linear-gradient"/><linearGradient id="linear-gradient-23" x1="233.42" y1="245.94" x2="237.75" y2="245.94" xlink:href="#linear-gradient"/></defs><g id="Objects"><path class="cls-1" d="M212.05,66a52.53,52.53,0,0,0-88.88,28.1c-.18,1.06-.33,2.14-.45,3.23s-.2,2.14-.25,3.22c0,.86-.07,1.72-.07,2.59v52.51h45.38c.05-.88.08-1.76.08-2.65v-7.06H132.11v-42.8c0-.9,0-1.78.08-2.65.07-1.08.18-2.15.32-3.21s.34-2.15.57-3.21A42.79,42.79,0,1,1,184,145v8c0,.63,0,1.26,0,1.88A52.53,52.53,0,0,0,212.05,66Z"/><path class="cls-2" d="M132.11,110.19h35.75V153c0,.89,0,1.77-.08,2.65-.07,1.08-.17,2.15-.32,3.2s-.33,2.15-.56,3.21a42.79,42.79,0,1,1-50.9-50.9v-8c0-.64,0-1.27,0-1.89a52.52,52.52,0,1,0,61.48,54.34c0-.42,0-.84,0-1.26,0-.23,0-.45,0-.68V153h0V100.48H132.19c-.05.87-.08,1.75-.08,2.65Z"/><path class="cls-3" d="M73.49,231.24a4.79,4.79,0,1,1-3.25-8.31,4.72,4.72,0,0,1,3.25,1.29l2.26-2.28a8,8,0,1,0,0,11.55Z"/><path class="cls-4" d="M104.8,227.72a8,8,0,1,0-8,8A8,8,0,0,0,104.8,227.72Zm-8,4.8a4.8,4.8,0,1,1,4.78-4.8A4.8,4.8,0,0,1,96.81,232.52Z"/><polygon class="cls-5" points="135.13 235.71 135.13 219.73 131.7 219.73 127.04 231.41 122.36 219.73 118.92 219.73 118.92 235.71 122.11 235.71 122.11 227.72 125.31 235.71 128.75 235.71 131.95 227.72 131.95 235.71 135.13 235.71"/><path class="cls-6" d="M153.73,219.73h-4.47v16h3.18v-6.39h1.31a4.8,4.8,0,0,0,0-9.59Zm0,6.38h-1.29v-3.18h1.29a1.59,1.59,0,1,1,0,3.18Z"/><path class="cls-7" d="M179.7,219.73h-3.39l-5.78,16h3.39l1.63-4.47h4.91l1.62,4.47h3.4Zm-3,8.3,1.28-3.6,1.31,3.6Z"/><polygon class="cls-8" points="209.3 230.39 202.91 219.73 199.18 219.73 199.18 235.71 202.36 235.71 202.36 225.06 208.77 235.71 212.48 235.71 212.48 219.73 209.3 219.73 209.3 230.39"/><polygon class="cls-9" points="233.54 235.71 233.54 228.1 237.72 219.73 234.16 219.73 231.96 224.15 229.75 219.73 226.19 219.73 230.36 228.1 230.36 235.71 233.54 235.71"/><path class="cls-10" d="M74.45,242.55,72,249.32h1.09l.52-1.51h2.57l.52,1.51h1.09l-2.47-6.77Zm-.56,4.35,1-3h0l1,3Z"/><path class="cls-11" d="M85.16,244a1.25,1.25,0,0,1,.43-.35,1.45,1.45,0,0,1,.62-.15,1.34,1.34,0,0,1,.84.29,1.44,1.44,0,0,1,.45.69h1.09a2.57,2.57,0,0,0-.78-1.42,2.51,2.51,0,0,0-2.93-.2,2.3,2.3,0,0,0-.79.83,2,2,0,0,0-.23.65,17.75,17.75,0,0,0,0,3.15,2.28,2.28,0,0,0,.1.36c0,.09.08.19.13.29a2.22,2.22,0,0,0,.79.83,2.35,2.35,0,0,0,1.33.39A2.39,2.39,0,0,0,88.63,247v-1.38H86.22v1H87.6v.35a1.39,1.39,0,0,1-.4,1,1.28,1.28,0,0,1-1,.41,1.21,1.21,0,0,1-.62-.15,1.23,1.23,0,0,1-.43-.34,1.12,1.12,0,0,1-.26-.57,11.52,11.52,0,0,1,0-2.71A1.08,1.08,0,0,1,85.16,244Z"/><polygon class="cls-12" points="95.53 242.55 95.53 249.32 99.86 249.32 99.86 248.35 96.56 248.35 96.56 242.55 95.53 242.55"/><rect class="cls-13" x="106.53" y="242.55" width="1.03" height="6.77"/><polygon class="cls-14" points="118.74 247.36 118.72 247.36 115.66 242.55 114.69 242.55 114.69 249.32 115.72 249.32 115.72 244.51 115.73 244.51 118.79 249.32 119.77 249.32 119.77 242.55 118.74 242.55 118.74 247.36"/><polygon class="cls-15" points="131.23 243.52 131.23 242.55 126.9 242.55 126.9 249.32 131.23 249.32 131.23 248.35 127.93 248.35 127.93 246.37 130.74 246.37 130.74 245.46 127.93 245.46 127.93 243.52 131.23 243.52"/><path class="cls-16" d="M146.74,242.88a2.38,2.38,0,0,0-.79.83,2,2,0,0,0-.23.65,17.75,17.75,0,0,0,0,3.15,2.28,2.28,0,0,0,.1.36c0,.09.08.19.13.29a2.3,2.3,0,0,0,.79.83,2.35,2.35,0,0,0,1.33.39,2.39,2.39,0,0,0,2.42-2.41v-1.38h-2.41v1h1.38v.35a1.39,1.39,0,0,1-.4,1,1.28,1.28,0,0,1-1,.41,1.21,1.21,0,0,1-.62-.15,1.23,1.23,0,0,1-.43-.34,1.12,1.12,0,0,1-.26-.57,11.52,11.52,0,0,1,0-2.71A1.08,1.08,0,0,1,147,244a1.25,1.25,0,0,1,.43-.35,1.45,1.45,0,0,1,.62-.15,1.34,1.34,0,0,1,.84.29,1.44,1.44,0,0,1,.45.69h1.09a2.57,2.57,0,0,0-.78-1.42,2.51,2.51,0,0,0-2.93-.2Z"/><path class="cls-17" d="M157.46,243.71a2,2,0,0,0-.23.65,17.75,17.75,0,0,0,0,3.15q0,.21.09.36l.14.29a2.22,2.22,0,0,0,.79.83,2.32,2.32,0,0,0,1.33.39,2.39,2.39,0,0,0,1.35-.39,2.24,2.24,0,0,0,.77-.83,1.7,1.7,0,0,0,.24-.65,20.7,20.7,0,0,0,0-3.15,1.77,1.77,0,0,0-.24-.65,2.34,2.34,0,0,0-2.12-1.21,2.25,2.25,0,0,0-1.33.38A2.3,2.3,0,0,0,157.46,243.71Zm.81.87a1.08,1.08,0,0,1,.26-.56,1.25,1.25,0,0,1,.43-.35,1.45,1.45,0,0,1,.62-.15,1.55,1.55,0,0,1,.64.15,1.27,1.27,0,0,1,.41.35,1.18,1.18,0,0,1,.27.56,13.15,13.15,0,0,1,0,2.71,1.21,1.21,0,0,1-.27.57,1.25,1.25,0,0,1-.41.34,1.29,1.29,0,0,1-.64.15,1.21,1.21,0,0,1-.62-.15,1.23,1.23,0,0,1-.43-.34,1.12,1.12,0,0,1-.26-.57,11.52,11.52,0,0,1,0-2.71Z"/><polygon class="cls-18" points="168.9 249.32 173.22 249.32 173.22 248.35 169.93 248.35 169.93 246.37 172.74 246.37 172.74 245.46 169.93 245.46 169.93 243.52 173.22 243.52 173.22 242.55 168.9 242.55 168.9 249.32"/><path class="cls-19" d="M181.9,248.35a3,3,0,0,1-1.92-.67l-.67.77a3.82,3.82,0,0,0,2.58.93c1.56,0,2.35-.68,2.38-2a1.91,1.91,0,0,0-.45-1.26,2.11,2.11,0,0,0-1.41-.69l-.76-.1a1.35,1.35,0,0,1-.73-.34.73.73,0,0,1-.22-.53.86.86,0,0,1,.34-.73,1.25,1.25,0,0,1,.78-.24,3.23,3.23,0,0,1,1.68.52l.57-.84a3.78,3.78,0,0,0-2.19-.7,2.31,2.31,0,0,0-1.62.54,1.85,1.85,0,0,0-.59,1.44,1.79,1.79,0,0,0,.46,1.25,2.23,2.23,0,0,0,1.33.64l.9.13c.59.1.89.41.88.91S182.78,248.34,181.9,248.35Z"/><polygon class="cls-20" points="199.05 249.32 200.07 249.32 200.07 246.37 202.75 246.37 202.75 249.32 203.78 249.32 203.78 242.55 202.75 242.55 202.75 245.46 200.07 245.46 200.07 242.55 199.05 242.55 199.05 249.32"/><polygon class="cls-21" points="215.24 243.52 215.24 242.55 210.92 242.55 210.92 249.32 215.24 249.32 215.24 248.35 211.94 248.35 211.94 246.37 214.76 246.37 214.76 245.46 211.94 245.46 211.94 243.52 215.24 243.52"/><path class="cls-22" d="M226.61,244.44a1.81,1.81,0,0,0-.67-1.44,2.08,2.08,0,0,0-1.38-.45h-2.65v6.77h1v-2.89h1.31l1.4,2.89h1.22l-1.57-3A1.89,1.89,0,0,0,226.61,244.44Zm-3.67,1.08v-2.05h1.61a1.16,1.16,0,0,1,.75.21.89.89,0,0,1,.34.76,1.06,1.06,0,0,1-.28.75,1.17,1.17,0,0,1-.87.33Z"/><polygon class="cls-23" points="233.42 249.32 237.75 249.32 237.75 248.35 234.45 248.35 234.45 246.37 237.26 246.37 237.26 245.46 234.45 245.46 234.45 243.52 237.75 243.52 237.75 242.55 233.42 242.55 233.42 249.32"/></g></svg>