<svg xmlns="http://www.w3.org/2000/svg" xmlns:xlink="http://www.w3.org/1999/xlink" viewBox="0 0 300 300"><defs><style>.cls-1{fill:url(#linear-gradient);}.cls-2{fill:url(#linear-gradient-2);}.cls-3{fill:url(#linear-gradient-3);}.cls-4{fill:url(#linear-gradient-4);}.cls-5{fill:url(#linear-gradient-5);}.cls-6{fill:url(#linear-gradient-6);}.cls-7{fill:url(#linear-gradient-7);}.cls-8{fill:url(#linear-gradient-8);}.cls-9{fill:url(#linear-gradient-9);}.cls-10{fill:url(#linear-gradient-10);}.cls-11{fill:url(#linear-gradient-11);}.cls-12{fill:url(#linear-gradient-12);}.cls-13{fill:url(#linear-gradient-13);}.cls-14{fill:url(#linear-gradient-14);}.cls-15{fill:url(#linear-gradient-15);}.cls-16{fill:url(#linear-gradient-16);}.cls-17{fill:url(#linear-gradient-17);}.cls-18{fill:url(#linear-gradient-18);}.cls-19{fill:url(#linear-gradient-19);}.cls-20{fill:url(#linear-gradient-20);}.cls-21{fill:url(#linear-gradient-21);}.cls-22{fill:url(#linear-gradient-22);}</style><linearGradient id="linear-gradient" x1="70.25" y1="151.9" x2="130.14" y2="92" gradientUnits="userSpaceOnUse"><stop offset="0" stop-color="#fff"/><stop offset="0.33" stop-color="#fff"/><stop offset="0.52" stop-color="#fff"/><stop offset="0.73" stop-color="#fff"/><stop offset="1" stop-color="#fff"/></linearGradient><linearGradient id="linear-gradient-2" x1="118.28" y1="194.19" x2="175.3" y2="137.16" xlink:href="#linear-gradient"/><linearGradient id="linear-gradient-3" x1="172.66" y1="127.18" x2="222" y2="77.84" xlink:href="#linear-gradient"/><linearGradient id="linear-gradient-4" x1="137.26" y1="97.51" x2="192.33" y2="42.44" xlink:href="#linear-gradient"/><linearGradient id="linear-gradient-5" x1="66.75" y1="252.61" x2="66.75" y2="24.25" xlink:href="#linear-gradient"/><linearGradient id="linear-gradient-6" x1="81.55" y1="266.29" x2="81.55" y2="71.39" xlink:href="#linear-gradient"/><linearGradient id="linear-gradient-7" x1="97.55" y1="290.24" x2="97.55" y2="77.35" xlink:href="#linear-gradient"/><linearGradient id="linear-gradient-8" x1="116.41" y1="329.52" x2="116.41" y2="80.92" xlink:href="#linear-gradient"/><linearGradient id="linear-gradient-9" x1="130.16" y1="442.43" x2="130.16" y2="-10.31" xlink:href="#linear-gradient"/><linearGradient id="linear-gradient-10" x1="144.85" y1="332.23" x2="144.85" y2="159.88" xlink:href="#linear-gradient"/><linearGradient id="linear-gradient-11" x1="161.41" y1="363.61" x2="161.41" y2="168.85" xlink:href="#linear-gradient"/><linearGradient id="linear-gradient-12" x1="185.23" y1="378.75" x2="185.23" y2="196.85" xlink:href="#linear-gradient"/><linearGradient id="linear-gradient-13" x1="201.6" y1="407.71" x2="201.6" y2="212.95" xlink:href="#linear-gradient"/><linearGradient id="linear-gradient-14" x1="217.56" y1="425.7" x2="217.56" y2="231.24" xlink:href="#linear-gradient"/><linearGradient id="linear-gradient-15" x1="233.4" y1="444.92" x2="233.4" y2="250.17" xlink:href="#linear-gradient"/><linearGradient id="linear-gradient-16" x1="71.87" y1="237.08" x2="71.87" y2="73.78" xlink:href="#linear-gradient"/><linearGradient id="linear-gradient-17" x1="98.24" y1="262.42" x2="98.24" y2="100.42" xlink:href="#linear-gradient"/><linearGradient id="linear-gradient-18" x1="126.65" y1="273.19" x2="126.65" y2="149.77" xlink:href="#linear-gradient"/><linearGradient id="linear-gradient-19" x1="153.89" y1="327.59" x2="153.89" y2="146.52" xlink:href="#linear-gradient"/><linearGradient id="linear-gradient-20" x1="177.48" y1="342.77" x2="177.48" y2="174.13" xlink:href="#linear-gradient"/><linearGradient id="linear-gradient-21" x1="203.16" y1="353.96" x2="203.16" y2="203.76" xlink:href="#linear-gradient"/><linearGradient id="linear-gradient-22" x1="228.56" y1="407.74" x2="228.56" y2="229.91" xlink:href="#linear-gradient"/></defs><g id="Objects"><polygon class="cls-1" points="116.02 102.92 118.51 102.92 118.51 105.41 118.51 143.8 129.79 132.52 129.79 91.65 90.33 91.65 90.33 171.98 101.6 160.7 101.6 105.41 101.6 102.92 104.1 102.92 116.02 102.92"/><polygon class="cls-2" points="160.46 147.36 162.95 147.36 162.95 149.86 162.95 161.77 162.95 164.27 160.46 164.27 110.91 164.27 99.63 175.54 174.22 175.54 174.22 136.09 139.09 136.09 127.81 147.36 160.46 147.36"/><polygon class="cls-3" points="198.4 101.08 198.4 103.58 195.9 103.58 171.6 103.58 160.33 114.84 209.67 114.84 209.67 65.51 198.4 76.78 198.4 101.08"/><polygon class="cls-4" points="194.83 67.47 206.1 56.2 151.03 56.2 151.03 111.28 162.3 100.01 162.3 69.97 162.3 67.47 164.79 67.47 194.83 67.47"/><polygon class="cls-5" points="64.08 237.13 66.17 237.13 66.17 243.73 67.33 243.73 67.33 237.13 69.42 237.13 69.42 236.1 64.08 236.1 64.08 237.13"/><path class="cls-6" d="M80.1,242H83l.59,1.7h1.22L82,236.1h-1l-2.78,7.63h1.23Zm1.44-4.37h0L82.67,241H80.44Z"/><path class="cls-7" d="M96.36,237.75a1.46,1.46,0,0,1,.49-.39,1.51,1.51,0,0,1,.7-.17,1.57,1.57,0,0,1,.94.32,1.64,1.64,0,0,1,.51.79h1.23a2.89,2.89,0,0,0-.88-1.61,2.76,2.76,0,0,0-4.19.72,2.07,2.07,0,0,0-.26.73,13,13,0,0,0-.08,1.78,13.15,13.15,0,0,0,.08,1.77,2.32,2.32,0,0,0,.1.4c0,.11.1.22.16.33a2.48,2.48,0,0,0,.89.94,2.71,2.71,0,0,0,1.5.43,2.63,2.63,0,0,0,1.93-.79,2.66,2.66,0,0,0,.79-1.92v-1.55H97.56v1.09h1.55v.4a1.56,1.56,0,0,1-.45,1.16,1.48,1.48,0,0,1-1.11.46,1.39,1.39,0,0,1-.7-.17,1.46,1.46,0,0,1-.49-.39,1.26,1.26,0,0,1-.29-.64,8.29,8.29,0,0,1-.09-1.52,8.56,8.56,0,0,1,.09-1.54A1.23,1.23,0,0,1,96.36,237.75Z"/><polygon class="cls-8" points="113.97 236.1 113.97 243.73 118.84 243.73 118.84 242.64 115.13 242.64 115.13 236.1 113.97 236.1"/><rect class="cls-9" x="129.58" y="236.1" width="1.16" height="7.63"/><polygon class="cls-10" points="146.54 241.52 143.08 236.1 141.99 236.1 141.99 243.73 143.15 243.73 143.15 238.31 143.17 238.31 146.62 243.73 147.72 243.73 147.72 236.1 146.56 236.1 146.56 241.52 146.54 241.52"/><polygon class="cls-11" points="163.85 237.19 163.85 236.1 158.98 236.1 158.98 243.73 163.85 243.73 163.85 242.64 160.13 242.64 160.13 240.4 163.31 240.4 163.31 239.37 160.13 239.37 160.13 237.19 163.85 237.19"/><polygon class="cls-12" points="187.9 243.73 187.9 236.1 186.74 236.1 186.74 239.37 183.72 239.37 183.72 236.1 182.56 236.1 182.56 243.73 183.72 243.73 183.72 240.4 186.74 240.4 186.74 243.73 187.9 243.73"/><polygon class="cls-13" points="204.03 237.19 204.03 236.1 199.16 236.1 199.16 243.73 204.03 243.73 204.03 242.64 200.32 242.64 200.32 240.4 203.49 240.4 203.49 239.37 200.32 239.37 200.32 237.19 204.03 237.19"/><path class="cls-14" d="M218.58,240.34a2.1,2.1,0,0,0,1.48-2.11,2,2,0,0,0-.75-1.63,2.39,2.39,0,0,0-1.56-.5h-3v7.63h1.16v-3.26h1.47l1.58,3.26h1.37Zm-2.65-.9v-2.31h1.81a1.28,1.28,0,0,1,.84.24,1,1,0,0,1,.39.86,1.2,1.2,0,0,1-.32.84,1.24,1.24,0,0,1-1,.37Z"/><polygon class="cls-15" points="230.96 243.73 235.83 243.73 235.83 242.64 232.12 242.64 232.12 240.4 235.29 240.4 235.29 239.37 232.12 239.37 232.12 237.19 235.83 237.19 235.83 236.1 230.96 236.1 230.96 243.73"/><path class="cls-16" d="M75.09,221.86a3,3,0,0,1-2.87,1.73,4,4,0,0,1-3.11-1.23,5.38,5.38,0,0,1,0-6.6,4,4,0,0,1,3.11-1.23,3,3,0,0,1,2.87,1.73h4.57a7.26,7.26,0,0,0-2.85-3.86A8,8,0,0,0,72.15,211a7.9,7.9,0,0,0-5.73,2.28,8.28,8.28,0,0,0,0,11.54,7.9,7.9,0,0,0,5.73,2.28,8,8,0,0,0,4.66-1.39,7.26,7.26,0,0,0,2.85-3.86Z"/><path class="cls-17" d="M106.3,219.06a7.72,7.72,0,0,0-2.32-5.77,8.34,8.34,0,0,0-11.46,0,8.3,8.3,0,0,0,0,11.55,8.3,8.3,0,0,0,11.45,0A7.76,7.76,0,0,0,106.3,219.06Zm-5,3.3a4.35,4.35,0,0,1-6.06,0,5.38,5.38,0,0,1,0-6.6,4.35,4.35,0,0,1,6.06,0,5.38,5.38,0,0,1,0,6.6Z"/><polygon class="cls-18" points="135.56 211.23 131.17 211.23 126.66 222.09 122.13 211.23 117.73 211.23 117.73 226.97 121.57 226.97 121.57 218.09 125.22 226.97 128.07 226.97 131.73 218.09 131.73 226.97 135.56 226.97 135.56 211.23"/><path class="cls-19" d="M151.73,220.85h2.37a7.64,7.64,0,0,0,2.84-.48,4.2,4.2,0,0,0,1.8-1.24,4.94,4.94,0,0,0,1.15-3.08,4.45,4.45,0,0,0-1.53-3.4,6,6,0,0,0-4.26-1.42h-6.21V227h3.84Zm0-6.7h2.37a1.8,1.8,0,0,1,1.37.54,1.89,1.89,0,0,1,.52,1.38,1.82,1.82,0,0,1-.51,1.35,1.8,1.8,0,0,1-1.38.52h-2.37Z"/><path class="cls-20" d="M179.82,211.19h-4.67L169.69,227h4.08l.87-2.65h5.65l.88,2.65h4.1Zm-4.22,10.22,1.86-5.6,1.87,5.6Z"/><polygon class="cls-21" points="210.2 226.97 210.2 211.19 206.37 211.19 206.37 221.12 199.96 211.19 196.12 211.19 196.12 226.97 199.96 226.97 199.96 217.04 206.37 226.97 210.2 226.97"/><polygon class="cls-22" points="228.57 218.34 225.54 211.23 221.19 211.23 226.64 221.91 226.64 226.97 230.47 226.97 230.47 221.91 235.92 211.23 231.57 211.23 228.57 218.34"/></g></svg>