<svg xmlns="http://www.w3.org/2000/svg" xmlns:xlink="http://www.w3.org/1999/xlink" viewBox="0 0 300 300"><defs><style>.cls-1{fill:url(#linear-gradient);}.cls-2{fill:url(#linear-gradient-2);}.cls-3{fill:url(#linear-gradient-3);}.cls-4{fill:url(#linear-gradient-4);}.cls-5{fill:url(#linear-gradient-5);}.cls-6{fill:url(#linear-gradient-6);}.cls-7{fill:url(#linear-gradient-7);}.cls-8{fill:url(#linear-gradient-8);}.cls-9{fill:url(#linear-gradient-9);}.cls-10{fill:url(#linear-gradient-10);}.cls-11{fill:url(#linear-gradient-11);}.cls-12{fill:url(#linear-gradient-12);}.cls-13{fill:url(#linear-gradient-13);}.cls-14{fill:url(#linear-gradient-14);}.cls-15{fill:url(#linear-gradient-15);}.cls-16{fill:url(#linear-gradient-16);}.cls-17{fill:url(#linear-gradient-17);}.cls-18{fill:url(#linear-gradient-18);}.cls-19{fill:url(#linear-gradient-19);}.cls-20{fill:url(#linear-gradient-20);}.cls-21{fill:url(#linear-gradient-21);}.cls-22{fill:url(#linear-gradient-22);}.cls-23{fill:url(#linear-gradient-23);}.cls-24{fill:url(#linear-gradient-24);}.cls-25{fill:url(#linear-gradient-25);}.cls-26{fill:url(#linear-gradient-26);}</style><linearGradient id="linear-gradient" x1="60.05" y1="224.89" x2="71.14" y2="224.89" gradientUnits="userSpaceOnUse"><stop offset="0" stop-color="#fff"/><stop offset="0.33" stop-color="#fff"/><stop offset="0.52" stop-color="#fff"/><stop offset="0.73" stop-color="#fff"/><stop offset="1" stop-color="#fff"/></linearGradient><linearGradient id="linear-gradient-2" x1="87.17" y1="224.89" x2="98.67" y2="224.89" xlink:href="#linear-gradient"/><linearGradient id="linear-gradient-3" x1="115.13" y1="224.89" x2="130.59" y2="224.89" xlink:href="#linear-gradient"/><linearGradient id="linear-gradient-4" x1="147.26" y1="224.89" x2="158.38" y2="224.89" xlink:href="#linear-gradient"/><linearGradient id="linear-gradient-5" x1="171.59" y1="224.89" x2="185.14" y2="224.89" xlink:href="#linear-gradient"/><linearGradient id="linear-gradient-6" x1="200.12" y1="224.89" x2="212.09" y2="224.89" xlink:href="#linear-gradient"/><linearGradient id="linear-gradient-7" x1="227.11" y1="224.89" x2="239.95" y2="224.89" xlink:href="#linear-gradient"/><linearGradient id="linear-gradient-8" x1="59.97" y1="249.34" x2="64.83" y2="249.34" xlink:href="#linear-gradient"/><linearGradient id="linear-gradient-9" x1="69.98" y1="249.34" x2="75.91" y2="249.34" xlink:href="#linear-gradient"/><linearGradient id="linear-gradient-10" x1="82.09" y1="249.34" x2="87.05" y2="249.34" xlink:href="#linear-gradient"/><linearGradient id="linear-gradient-11" x1="94.14" y1="249.34" x2="98.57" y2="249.34" xlink:href="#linear-gradient"/><linearGradient id="linear-gradient-12" x1="105.42" y1="249.34" x2="106.47" y2="249.34" xlink:href="#linear-gradient"/><linearGradient id="linear-gradient-13" x1="113.79" y1="249.34" x2="119" y2="249.34" xlink:href="#linear-gradient"/><linearGradient id="linear-gradient-14" x1="126.32" y1="249.34" x2="130.75" y2="249.34" xlink:href="#linear-gradient"/><linearGradient id="linear-gradient-15" x1="145.55" y1="249.34" x2="150.51" y2="249.34" xlink:href="#linear-gradient"/><linearGradient id="linear-gradient-16" x1="157.36" y1="249.34" x2="162.32" y2="249.34" xlink:href="#linear-gradient"/><linearGradient id="linear-gradient-17" x1="169.4" y1="249.34" x2="173.84" y2="249.34" xlink:href="#linear-gradient"/><linearGradient id="linear-gradient-18" x1="180.08" y1="249.34" x2="185.17" y2="249.34" xlink:href="#linear-gradient"/><linearGradient id="linear-gradient-19" x1="200.33" y1="249.34" x2="205.19" y2="249.34" xlink:href="#linear-gradient"/><linearGradient id="linear-gradient-20" x1="212.51" y1="249.34" x2="216.94" y2="249.34" xlink:href="#linear-gradient"/><linearGradient id="linear-gradient-21" x1="223.79" y1="249.34" x2="228.87" y2="249.34" xlink:href="#linear-gradient"/><linearGradient id="linear-gradient-22" x1="235.59" y1="249.34" x2="240.03" y2="249.34" xlink:href="#linear-gradient"/><linearGradient id="linear-gradient-23" x1="96.97" y1="99.31" x2="179.56" y2="99.31" xlink:href="#linear-gradient"/><linearGradient id="linear-gradient-24" x1="183.67" y1="69.6" x2="203.02" y2="69.6" xlink:href="#linear-gradient"/><linearGradient id="linear-gradient-25" x1="120.44" y1="136.58" x2="203.02" y2="136.58" xlink:href="#linear-gradient"/><linearGradient id="linear-gradient-26" x1="96.97" y1="166.28" x2="116.34" y2="166.28" xlink:href="#linear-gradient"/></defs><g id="Objects"><path class="cls-1" d="M61.9,235.85a4.79,4.79,0,0,0,1.82.94,7.61,7.61,0,0,0,2,.27,5.09,5.09,0,0,0,2.13-.46,5.46,5.46,0,0,0,1.73-1.23,5.61,5.61,0,0,0,1.16-1.76,5.32,5.32,0,0,0,.42-2.1V230H67.72v1.18a2.85,2.85,0,0,1-.21,1.17,2,2,0,0,1-.5.74,2.2,2.2,0,0,1-.72.39,2.47,2.47,0,0,1-.73.12,1.8,1.8,0,0,1-1.63-.71,3.18,3.18,0,0,1-.45-1.75V218.94a4.24,4.24,0,0,1,.42-2,1.76,1.76,0,0,1,1.7-.79,1.85,1.85,0,0,1,1.54.74,2.79,2.79,0,0,1,.58,1.75v1.14h3.42v-1.34a6.15,6.15,0,0,0-.42-2.3,5.54,5.54,0,0,0-1.16-1.84,5.2,5.2,0,0,0-3.93-1.58,6,6,0,0,0-2.27.42,5.15,5.15,0,0,0-2.9,2.91,5.81,5.81,0,0,0-.41,2.19v13.17a6.18,6.18,0,0,0,.52,2.7A5.23,5.23,0,0,0,61.9,235.85Z"/><path class="cls-2" d="M89,235.58a5.55,5.55,0,0,0,1.83,1.11,6,6,0,0,0,4.14,0,5.89,5.89,0,0,0,1.86-1.11,5.28,5.28,0,0,0,1.31-1.78,6,6,0,0,0,.51-2.59V218.57a6,6,0,0,0-.51-2.55,5.48,5.48,0,0,0-1.31-1.85A6.2,6.2,0,0,0,95,213.09a6,6,0,0,0-4.14,0A5.82,5.82,0,0,0,89,214.17,5.28,5.28,0,0,0,87.68,216a6,6,0,0,0-.51,2.55v12.64a6,6,0,0,0,.51,2.59A5.1,5.1,0,0,0,89,235.58Zm1.58-17a2.27,2.27,0,0,1,.69-1.83,2.55,2.55,0,0,1,3.26,0,2.27,2.27,0,0,1,.69,1.83v12.64a2.27,2.27,0,0,1-.69,1.83,2.55,2.55,0,0,1-3.26,0,2.27,2.27,0,0,1-.69-1.83Z"/><polygon class="cls-3" points="122.9 225.59 122.83 225.59 118.43 212.93 115.13 212.93 115.13 236.85 118.56 236.85 118.56 222.3 118.63 222.3 121.99 232.59 123.7 232.59 127.1 222.3 127.16 222.3 127.16 236.85 130.59 236.85 130.59 212.93 127.27 212.93 122.9 225.59"/><path class="cls-4" d="M156.84,214.61a4.65,4.65,0,0,0-2-1.31,7.59,7.59,0,0,0-2.49-.37h-5.14v23.92h3.43v-9.34h1.75a6.44,6.44,0,0,0,3.09-.65,5,5,0,0,0,1.88-1.84,5.67,5.67,0,0,0,.79-2.08,17.39,17.39,0,0,0,.18-2.72,14,14,0,0,0-.33-3.41A5.17,5.17,0,0,0,156.84,214.61Zm-1.73,7.29a3.13,3.13,0,0,1-.32,1.24,1.9,1.9,0,0,1-.84.84,3.52,3.52,0,0,1-1.61.3h-1.65v-8.13h1.78a3.25,3.25,0,0,1,1.55.3,2,2,0,0,1,.8.88,3.38,3.38,0,0,1,.3,1.33c0,.5,0,1,0,1.59S155.14,221.41,155.11,221.9Z"/><path class="cls-5" d="M176.94,212.93l-5.35,23.92H175l1-5.14h4.67l1,5.14h3.43l-5.35-23.92Zm-.31,15.56,1.68-8.67h.07l1.68,8.67Z"/><polygon class="cls-6" points="200.12 236.85 203.55 236.85 203.55 222.47 203.62 222.47 208.86 236.85 212.09 236.85 212.09 212.93 208.66 212.93 208.66 227.34 208.59 227.34 203.42 212.93 200.12 212.93 200.12 236.85"/><polygon class="cls-7" points="231.81 236.85 235.24 236.85 235.24 226.74 239.95 212.93 236.32 212.93 233.56 222.44 233.5 222.44 230.74 212.93 227.11 212.93 231.81 226.74 231.81 236.85"/><polygon class="cls-8" points="62.93 252.81 62.93 246.8 64.83 246.8 64.83 245.86 59.97 245.86 59.97 246.8 61.87 246.8 61.87 252.81 62.93 252.81"/><path class="cls-9" d="M73.39,245.86H72.5L70,252.81h1.11l.53-1.55h2.64l.54,1.55h1.11Zm-1.46,4.47,1-3.05h0l1,3.05Z"/><path class="cls-10" d="M82.26,251.32l.14.3a2.41,2.41,0,0,0,.81.85,2.53,2.53,0,0,0,3.13-.32,2.47,2.47,0,0,0,.71-1.75V249H84.59v1H86v.36a1.43,1.43,0,0,1-.41,1,1.34,1.34,0,0,1-1,.42,1.39,1.39,0,0,1-1.08-.5,1.11,1.11,0,0,1-.27-.59,8,8,0,0,1-.08-1.38,8.28,8.28,0,0,1,.08-1.4,1.12,1.12,0,0,1,.27-.58,1.29,1.29,0,0,1,.44-.35,1.41,1.41,0,0,1,.64-.15,1.36,1.36,0,0,1,.85.29,1.53,1.53,0,0,1,.47.71H87a2.66,2.66,0,0,0-.81-1.46,2.57,2.57,0,0,0-3-.2,2.41,2.41,0,0,0-.81.85,1.81,1.81,0,0,0-.23.67,10.76,10.76,0,0,0-.08,1.62,10.89,10.89,0,0,0,.08,1.61A1.54,1.54,0,0,0,82.26,251.32Z"/><polygon class="cls-11" points="94.14 245.86 94.14 252.81 98.57 252.81 98.57 251.81 95.19 251.81 95.19 245.86 94.14 245.86"/><rect class="cls-12" x="105.42" y="245.86" width="1.05" height="6.95"/><polygon class="cls-13" points="113.79 245.86 113.79 252.81 114.84 252.81 114.84 247.87 114.86 247.87 118 252.81 119 252.81 119 245.86 117.94 245.86 117.94 250.8 117.92 250.8 114.78 245.86 113.79 245.86"/><polygon class="cls-14" points="130.75 246.86 130.75 245.86 126.32 245.86 126.32 252.81 130.75 252.81 130.75 251.81 127.37 251.81 127.37 249.78 130.26 249.78 130.26 248.84 127.37 248.84 127.37 246.86 130.75 246.86"/><path class="cls-15" d="M145.86,247.05a2,2,0,0,0-.23.67,10.76,10.76,0,0,0-.08,1.62,10.89,10.89,0,0,0,.08,1.61,1.54,1.54,0,0,0,.09.37l.14.3a2.41,2.41,0,0,0,.81.85,2.55,2.55,0,0,0,1.37.4,2.51,2.51,0,0,0,1.76-.72,2.47,2.47,0,0,0,.71-1.75V249h-2.46v1h1.41v.36a1.39,1.39,0,0,1-.41,1,1.32,1.32,0,0,1-1,.42,1.39,1.39,0,0,1-1.08-.5,1.11,1.11,0,0,1-.27-.59,8,8,0,0,1-.08-1.38,8.28,8.28,0,0,1,.08-1.4,1.12,1.12,0,0,1,.27-.58,1.29,1.29,0,0,1,.44-.35,1.41,1.41,0,0,1,.64-.15,1.36,1.36,0,0,1,.85.29,1.46,1.46,0,0,1,.47.71h1.12a2.65,2.65,0,0,0-.8-1.46,2.34,2.34,0,0,0-1.64-.59,2.31,2.31,0,0,0-1.37.39A2.41,2.41,0,0,0,145.86,247.05Z"/><path class="cls-16" d="M157.67,247.05a1.81,1.81,0,0,0-.24.67,18.67,18.67,0,0,0,0,3.23,2.14,2.14,0,0,0,.1.37c0,.09.08.19.14.3a2.24,2.24,0,0,0,.81.85,2.55,2.55,0,0,0,2.74,0,2.26,2.26,0,0,0,.79-.85,1.65,1.65,0,0,0,.25-.67,13.86,13.86,0,0,0,.06-1.61,13.72,13.72,0,0,0-.06-1.62,1.65,1.65,0,0,0-.25-.67,2.26,2.26,0,0,0-.79-.85,2.6,2.6,0,0,0-2.74,0A2.24,2.24,0,0,0,157.67,247.05Zm.82.89a1.21,1.21,0,0,1,.28-.58,1.25,1.25,0,0,1,.43-.35,1.41,1.41,0,0,1,.64-.15,1.53,1.53,0,0,1,.66.15,1.18,1.18,0,0,1,.41.35,1.32,1.32,0,0,1,.29.58,10,10,0,0,1,.07,1.4,9.66,9.66,0,0,1-.07,1.38,1.31,1.31,0,0,1-.29.59,1.18,1.18,0,0,1-.41.35,1.4,1.4,0,0,1-.66.15,1.29,1.29,0,0,1-.64-.15,1.25,1.25,0,0,1-.43-.35,1.21,1.21,0,0,1-.28-.59,8.33,8.33,0,0,1-.07-1.38A8.63,8.63,0,0,1,158.49,247.94Z"/><polygon class="cls-17" points="169.4 252.81 173.84 252.81 173.84 251.81 170.46 251.81 170.46 249.78 173.34 249.78 173.34 248.84 170.46 248.84 170.46 246.86 173.84 246.86 173.84 245.86 169.4 245.86 169.4 252.81"/><path class="cls-18" d="M182.74,251.81a3,3,0,0,1-2-.69l-.69.79a3.91,3.91,0,0,0,2.65,1c1.6,0,2.41-.7,2.44-2a2,2,0,0,0-.46-1.3,2.15,2.15,0,0,0-1.44-.7l-.78-.11a1.31,1.31,0,0,1-.75-.34.75.75,0,0,1-.24-.55.93.93,0,0,1,.35-.75,1.34,1.34,0,0,1,.81-.24,3.17,3.17,0,0,1,1.72.53l.59-.86a3.92,3.92,0,0,0-2.26-.72,2.33,2.33,0,0,0-1.66.56,1.91,1.91,0,0,0-.6,1.47,1.83,1.83,0,0,0,.48,1.28,2.17,2.17,0,0,0,1.36.66l.92.13c.61.11.91.42.91.94S183.65,251.8,182.74,251.81Z"/><polygon class="cls-19" points="200.33 245.86 200.33 252.81 201.38 252.81 201.38 249.78 204.13 249.78 204.13 252.81 205.19 252.81 205.19 245.86 204.13 245.86 204.13 248.84 201.38 248.84 201.38 245.86 200.33 245.86"/><polygon class="cls-20" points="216.94 251.81 213.56 251.81 213.56 249.78 216.45 249.78 216.45 248.84 213.56 248.84 213.56 246.86 216.94 246.86 216.94 245.86 212.51 245.86 212.51 252.81 216.94 252.81 216.94 251.81"/><path class="cls-21" d="M224.84,249.84h1.35l1.43,3h1.25l-1.61-3.08a1.94,1.94,0,0,0,1.35-1.93,1.86,1.86,0,0,0-.69-1.48,2.18,2.18,0,0,0-1.42-.46h-2.71v6.95h1.05Zm0-3h1.65a1.16,1.16,0,0,1,.77.22.91.91,0,0,1,.35.78,1.07,1.07,0,0,1-.29.76,1.14,1.14,0,0,1-.89.35h-1.59Z"/><polygon class="cls-22" points="240.03 246.86 240.03 245.86 235.59 245.86 235.59 252.81 240.03 252.81 240.03 251.81 236.65 251.81 236.65 249.78 239.53 249.78 239.53 248.84 236.65 248.84 236.65 246.86 240.03 246.86"/><path class="cls-23" d="M179.56,128.23v23.26H120.83a23,23,0,0,1-4.49-.43l-.62-.13A23.87,23.87,0,0,1,97,127.65V47.13A38.37,38.37,0,0,1,116.34,80.4v38.1A13.64,13.64,0,0,0,130,132.13H170A13.57,13.57,0,0,0,179.56,128.23Z"/><path class="cls-24" d="M203,47.13V92.08A28.72,28.72,0,0,0,184.6,79.93c-.31-.05-.62-.11-.93-.15A38.37,38.37,0,0,1,203,47.13Z"/><path class="cls-25" d="M203,108.27v80.49a38.37,38.37,0,0,1-19.36-33.27V117.4A13.65,13.65,0,0,0,170,103.77H130a13.59,13.59,0,0,0-9.53,3.9V84.41h58.73A23.81,23.81,0,0,1,203,108.27Z"/><path class="cls-26" d="M116.34,156.12A38.35,38.35,0,0,1,97,188.76v-45a28.86,28.86,0,0,0,6.9,7.14,28.37,28.37,0,0,0,10.78,4.86l.13,0,.62.13C115.7,156,116,156.08,116.34,156.12Z"/></g></svg>