<svg xmlns="http://www.w3.org/2000/svg" xmlns:xlink="http://www.w3.org/1999/xlink" viewBox="0 0 300 300"><defs><style>.cls-1{fill:url(#linear-gradient);}.cls-2{fill:url(#linear-gradient-2);}.cls-3{fill:url(#linear-gradient-3);}.cls-4{fill:url(#linear-gradient-4);}.cls-5{fill:url(#linear-gradient-5);}.cls-6{fill:url(#linear-gradient-6);}.cls-7{fill:url(#linear-gradient-7);}.cls-8{fill:url(#linear-gradient-8);}.cls-9{fill:url(#linear-gradient-9);}.cls-10{fill:url(#linear-gradient-10);}.cls-11{fill:url(#linear-gradient-11);}.cls-12{fill:url(#linear-gradient-12);}.cls-13{fill:url(#linear-gradient-13);}.cls-14{fill:url(#linear-gradient-14);}.cls-15{fill:url(#linear-gradient-15);}.cls-16{fill:url(#linear-gradient-16);}.cls-17{fill:url(#linear-gradient-17);}.cls-18{fill:url(#linear-gradient-18);}.cls-19{fill:url(#linear-gradient-19);}.cls-20{fill:url(#linear-gradient-20);}.cls-21{fill:url(#linear-gradient-21);}.cls-22{fill:url(#linear-gradient-22);}.cls-23{fill:url(#linear-gradient-23);}.cls-24{fill:url(#linear-gradient-24);}.cls-25{fill:url(#linear-gradient-25);}.cls-26{fill:url(#linear-gradient-26);}.cls-27{fill:url(#linear-gradient-27);}.cls-28{fill:url(#linear-gradient-28);}.cls-29{fill:url(#linear-gradient-29);}.cls-30{fill:url(#linear-gradient-30);}.cls-31{fill:url(#linear-gradient-31);}.cls-32{fill:url(#linear-gradient-32);}.cls-33{fill:url(#linear-gradient-33);}.cls-34{fill:url(#linear-gradient-34);}.cls-35{fill:url(#linear-gradient-35);}.cls-36{fill:url(#linear-gradient-36);}.cls-37{fill:url(#linear-gradient-37);}.cls-38{fill:url(#linear-gradient-38);}.cls-39{fill:url(#linear-gradient-39);}.cls-40{fill:url(#linear-gradient-40);}</style><linearGradient id="linear-gradient" x1="163.37" y1="109.43" x2="192.64" y2="109.43" gradientTransform="translate(129.52 -93.82) rotate(45)" gradientUnits="userSpaceOnUse"><stop offset="0" stop-color="#fff"/><stop offset="0.33" stop-color="#fff"/><stop offset="0.52" stop-color="#fff"/><stop offset="0.73" stop-color="#fff"/><stop offset="1" stop-color="#fff"/></linearGradient><linearGradient id="linear-gradient-2" x1="120.69" y1="152.11" x2="149.96" y2="152.11" gradientTransform="translate(147.19 -51.13) rotate(45)" xlink:href="#linear-gradient"/><linearGradient id="linear-gradient-3" x1="149.96" y1="96.02" x2="179.23" y2="96.02" gradientTransform="translate(116.1 -88.26) rotate(45)" xlink:href="#linear-gradient"/><linearGradient id="linear-gradient-4" x1="107.27" y1="138.7" x2="136.54" y2="138.7" gradientTransform="translate(133.78 -45.58) rotate(45)" xlink:href="#linear-gradient"/><linearGradient id="linear-gradient-5" x1="107.27" y1="109.43" x2="136.54" y2="109.43" gradientTransform="translate(113.08 -54.15) rotate(45)" xlink:href="#linear-gradient"/><linearGradient id="linear-gradient-6" x1="120.69" y1="96.02" x2="149.96" y2="96.02" gradientTransform="translate(107.53 -67.56) rotate(45)" xlink:href="#linear-gradient"/><linearGradient id="linear-gradient-7" x1="163.37" y1="138.7" x2="192.64" y2="138.7" gradientTransform="translate(150.21 -85.24) rotate(45)" xlink:href="#linear-gradient"/><linearGradient id="linear-gradient-8" x1="149.96" y1="152.11" x2="179.23" y2="152.11" gradientTransform="translate(155.77 -71.83) rotate(45)" xlink:href="#linear-gradient"/><linearGradient id="linear-gradient-9" x1="120.69" y1="185.46" x2="179.23" y2="185.46" gradientTransform="matrix(1, 0, 0, 1, 0, 0)" xlink:href="#linear-gradient"/><linearGradient id="linear-gradient-10" x1="69.85" y1="124.06" x2="107.27" y2="124.06" gradientTransform="matrix(1, 0, 0, 1, 0, 0)" xlink:href="#linear-gradient"/><linearGradient id="linear-gradient-11" x1="192.64" y1="124.06" x2="230.07" y2="124.06" gradientTransform="matrix(1, 0, 0, 1, 0, 0)" xlink:href="#linear-gradient"/><linearGradient id="linear-gradient-12" x1="120.69" y1="62.67" x2="179.23" y2="62.67" gradientTransform="matrix(1, 0, 0, 1, 0, 0)" xlink:href="#linear-gradient"/><linearGradient id="linear-gradient-13" x1="69.93" y1="233.34" x2="85.37" y2="233.34" gradientTransform="matrix(1, 0, 0, 1, 0, 0)" xlink:href="#linear-gradient"/><linearGradient id="linear-gradient-14" x1="93.22" y1="233.33" x2="109.86" y2="233.33" gradientTransform="matrix(1, 0, 0, 1, 0, 0)" xlink:href="#linear-gradient"/><linearGradient id="linear-gradient-15" x1="132.85" y1="233.62" x2="135.3" y2="233.62" gradientTransform="matrix(1, 0, 0, 1, 0, 0)" xlink:href="#linear-gradient"/><linearGradient id="linear-gradient-16" x1="122.09" y1="233.62" x2="131.94" y2="233.62" gradientTransform="matrix(1, 0, 0, 1, 0, 0)" xlink:href="#linear-gradient"/><linearGradient id="linear-gradient-17" x1="118.7" y1="233.62" x2="121.18" y2="233.62" gradientTransform="matrix(1, 0, 0, 1, 0, 0)" xlink:href="#linear-gradient"/><linearGradient id="linear-gradient-18" x1="147.59" y1="230.22" x2="157.47" y2="230.22" gradientTransform="matrix(1, 0, 0, 1, 0, 0)" xlink:href="#linear-gradient"/><linearGradient id="linear-gradient-19" x1="144.13" y1="233.62" x2="146.69" y2="233.62" gradientTransform="matrix(1, 0, 0, 1, 0, 0)" xlink:href="#linear-gradient"/><linearGradient id="linear-gradient-20" x1="166.31" y1="233.62" x2="182.72" y2="233.62" gradientTransform="matrix(1, 0, 0, 1, 0, 0)" xlink:href="#linear-gradient"/><linearGradient id="linear-gradient-21" x1="202.52" y1="233.62" x2="205.05" y2="233.62" gradientTransform="matrix(1, 0, 0, 1, 0, 0)" xlink:href="#linear-gradient"/><linearGradient id="linear-gradient-22" x1="191.31" y1="233.62" x2="193.69" y2="233.62" gradientTransform="matrix(1, 0, 0, 1, 0, 0)" xlink:href="#linear-gradient"/><linearGradient id="linear-gradient-23" x1="194.59" y1="233.53" x2="201.62" y2="233.53" gradientTransform="matrix(1, 0, 0, 1, 0, 0)" xlink:href="#linear-gradient"/><linearGradient id="linear-gradient-24" x1="220.61" y1="233.62" x2="230.13" y2="233.62" gradientTransform="matrix(1, 0, 0, 1, 0, 0)" xlink:href="#linear-gradient"/><linearGradient id="linear-gradient-25" x1="213.89" y1="229.62" x2="221.49" y2="229.62" gradientTransform="matrix(1, 0, 0, 1, 0, 0)" xlink:href="#linear-gradient"/><linearGradient id="linear-gradient-26" x1="69.93" y1="252.9" x2="74.26" y2="252.9" gradientTransform="matrix(1, 0, 0, 1, 0, 0)" xlink:href="#linear-gradient"/><linearGradient id="linear-gradient-27" x1="78.84" y1="252.9" x2="84.12" y2="252.9" gradientTransform="matrix(1, 0, 0, 1, 0, 0)" xlink:href="#linear-gradient"/><linearGradient id="linear-gradient-28" x1="89.62" y1="252.9" x2="94.03" y2="252.9" gradientTransform="matrix(1, 0, 0, 1, 0, 0)" xlink:href="#linear-gradient"/><linearGradient id="linear-gradient-29" x1="100.34" y1="252.9" x2="104.28" y2="252.9" gradientTransform="matrix(1, 0, 0, 1, 0, 0)" xlink:href="#linear-gradient"/><linearGradient id="linear-gradient-30" x1="110.37" y1="252.9" x2="111.31" y2="252.9" gradientTransform="matrix(1, 0, 0, 1, 0, 0)" xlink:href="#linear-gradient"/><linearGradient id="linear-gradient-31" x1="117.82" y1="252.9" x2="122.46" y2="252.9" gradientTransform="matrix(1, 0, 0, 1, 0, 0)" xlink:href="#linear-gradient"/><linearGradient id="linear-gradient-32" x1="128.97" y1="252.9" x2="132.92" y2="252.9" gradientTransform="matrix(1, 0, 0, 1, 0, 0)" xlink:href="#linear-gradient"/><linearGradient id="linear-gradient-33" x1="146.09" y1="252.9" x2="150.5" y2="252.9" gradientTransform="matrix(1, 0, 0, 1, 0, 0)" xlink:href="#linear-gradient"/><linearGradient id="linear-gradient-34" x1="156.59" y1="252.9" x2="161.01" y2="252.9" gradientTransform="matrix(1, 0, 0, 1, 0, 0)" xlink:href="#linear-gradient"/><linearGradient id="linear-gradient-35" x1="167.31" y1="252.9" x2="171.26" y2="252.9" gradientTransform="matrix(1, 0, 0, 1, 0, 0)" xlink:href="#linear-gradient"/><linearGradient id="linear-gradient-36" x1="176.81" y1="252.9" x2="181.34" y2="252.9" gradientTransform="matrix(1, 0, 0, 1, 0, 0)" xlink:href="#linear-gradient"/><linearGradient id="linear-gradient-37" x1="194.83" y1="252.9" x2="199.15" y2="252.9" gradientTransform="matrix(1, 0, 0, 1, 0, 0)" xlink:href="#linear-gradient"/><linearGradient id="linear-gradient-38" x1="205.66" y1="252.9" x2="209.61" y2="252.9" gradientTransform="matrix(1, 0, 0, 1, 0, 0)" xlink:href="#linear-gradient"/><linearGradient id="linear-gradient-39" x1="215.7" y1="252.9" x2="220.22" y2="252.9" gradientTransform="matrix(1, 0, 0, 1, 0, 0)" xlink:href="#linear-gradient"/><linearGradient id="linear-gradient-40" x1="226.2" y1="252.9" x2="230.15" y2="252.9" gradientTransform="matrix(1, 0, 0, 1, 0, 0)" xlink:href="#linear-gradient"/></defs><g id="Objects"><rect class="cls-1" x="163.07" y="103.66" width="29.86" height="11.53" transform="translate(-25.24 157.92) rotate(-45)"/><rect class="cls-2" x="120.39" y="146.35" width="29.86" height="11.53" transform="translate(-67.92 140.24) rotate(-45)"/><rect class="cls-3" x="149.66" y="90.25" width="29.86" height="11.53" transform="translate(-19.69 144.51) rotate(-45)"/><rect class="cls-4" x="106.98" y="132.93" width="29.86" height="11.53" transform="translate(-62.37 126.83) rotate(-45)"/><rect class="cls-5" x="116.14" y="94.5" width="11.53" height="29.86" transform="translate(-41.67 118.25) rotate(-45)"/><rect class="cls-6" x="129.55" y="81.09" width="11.53" height="29.86" transform="translate(-28.26 123.81) rotate(-45)"/><rect class="cls-7" x="172.24" y="123.77" width="11.53" height="29.86" transform="translate(-45.94 166.49) rotate(-45)"/><rect class="cls-8" x="158.83" y="137.18" width="11.53" height="29.86" transform="translate(-59.35 160.94) rotate(-45)"/><polygon class="cls-9" points="179.23 174.9 171.07 166.75 149.96 187.86 128.84 166.75 120.69 174.9 149.96 204.17 179.23 174.9"/><polygon class="cls-10" points="107.27 102.95 99.12 94.79 69.85 124.06 99.12 153.34 107.27 145.18 86.16 124.06 107.27 102.95"/><polygon class="cls-11" points="200.79 94.79 192.64 102.95 213.75 124.06 192.64 145.18 200.79 153.34 230.06 124.06 200.79 94.79"/><polygon class="cls-12" points="171.07 81.38 179.23 73.23 149.96 43.96 120.69 73.23 128.84 81.38 149.96 60.27 171.07 81.38"/><path class="cls-13" d="M82.71,240.68a7.47,7.47,0,0,0,2.6-4.24l.06-.15-2.56-.64,0,.16a5.49,5.49,0,0,1-1.71,3.1,4.9,4.9,0,0,1-3.13,1,5.61,5.61,0,0,1-2.83-.76,4.55,4.55,0,0,1-1.9-2.32,10.32,10.32,0,0,1-.1-6.82,5,5,0,0,1,1.79-2.43,5.66,5.66,0,0,1,3.21-.88,4.36,4.36,0,0,1,2.75.81,4.86,4.86,0,0,1,1.67,2.57l0,.13,2.53-.58,0-.15a7,7,0,0,0-2.5-3.69,7.3,7.3,0,0,0-4.4-1.29,8.94,8.94,0,0,0-4.22,1,7.3,7.3,0,0,0-3,3,10,10,0,0,0-1,4.62,11.45,11.45,0,0,0,.91,4.55A7,7,0,0,0,73.55,241a8.25,8.25,0,0,0,4.57,1.13A7.38,7.38,0,0,0,82.71,240.68Z"/><path class="cls-14" d="M108.8,238a9.8,9.8,0,0,0,1.06-4.62,10.15,10.15,0,0,0-1-4.55,7.56,7.56,0,0,0-2.95-3.16,8.52,8.52,0,0,0-4.35-1.13,8,8,0,0,0-6,2.4,10.15,10.15,0,0,0-1.31,10.88A7.55,7.55,0,0,0,97.16,241a8.19,8.19,0,0,0,4.37,1.16,8.64,8.64,0,0,0,4.22-1.06A7.25,7.25,0,0,0,108.8,238Zm-7.27,2a5.5,5.5,0,0,1-4.07-1.69,6.63,6.63,0,0,1-1.61-4.68c0-2.45.58-4.24,1.69-5.28a5.74,5.74,0,0,1,4-1.56,5.64,5.64,0,0,1,3,.81,5.24,5.24,0,0,1,2,2.3,8.42,8.42,0,0,1,.68,3.51,6.92,6.92,0,0,1-1.59,4.87A5.38,5.38,0,0,1,101.53,240Z"/><rect class="cls-15" x="132.85" y="225.1" width="2.45" height="17.05"/><path class="cls-16" d="M128.1,242.14l3.84-10.83v-6.06l-4.07,11.59c-.33.94-.58,1.67-.76,2.25l-.68-2-4.07-12h-.27v6.18l3.76,10.86Z"/><rect class="cls-17" x="118.7" y="225.1" width="2.47" height="17.05"/><path class="cls-18" d="M156,233.81a5.49,5.49,0,0,0,.91-6.06,4.23,4.23,0,0,0-1.44-1.67,5.16,5.16,0,0,0-2.15-.81,14.61,14.61,0,0,0-2.62-.17h-3.14v2.27h3.31a9.35,9.35,0,0,1,2.07.15,2.3,2.3,0,0,1,1.34.94,2.71,2.71,0,0,1,.51,1.71,2.68,2.68,0,0,1-.86,2.13,4.67,4.67,0,0,1-3,.75h-3.36v2.3h3.34C153.35,235.35,155.1,234.82,156,233.81Z"/><rect class="cls-19" x="144.13" y="225.1" width="2.55" height="17.05"/><path class="cls-20" d="M175.6,225.1H173l-6.67,17H169l.76-2h0l1.92-5.18.41-1.06,1.41-3.76h0a23.53,23.53,0,0,0,.75-2.53c.26.81.61,1.8,1,2.91L177,235h-4.37l-.79,2.1h6l2,5.07h2.9Z"/><polygon class="cls-21" points="202.53 237.83 202.53 242.15 205.05 242.15 205.05 225.1 202.57 225.1 202.57 237.9 202.53 237.83"/><rect class="cls-22" x="191.31" y="225.1" width="2.37" height="17.05"/><polygon class="cls-23" points="201.62 236.49 194.59 226.21 194.59 230.55 201.62 240.86 201.62 236.49"/><path class="cls-24" d="M227.12,225.1l-3.36,5c-.65,1-1.23,1.92-1.74,2.73v0L220.61,235v7.19h2.57V235l6.95-9.85Z"/><polygon class="cls-25" points="220.43 230.22 217.02 225.1 213.89 225.1 220.05 234.14 221.49 231.92 220.43 230.22"/><polygon class="cls-26" points="72.57 255.99 72.57 250.65 74.26 250.65 74.26 249.81 69.94 249.81 69.94 250.65 71.63 250.65 71.63 255.99 72.57 255.99"/><path class="cls-27" d="M81.87,249.81h-.79L78.84,256h1l.48-1.39h2.35l.47,1.39h1Zm-1.29,4,.9-2.7h0l.89,2.7Z"/><path class="cls-28" d="M90.87,251.15a1.12,1.12,0,0,1,.39-.32,1.26,1.26,0,0,1,.57-.13,1.17,1.17,0,0,1,.76.26,1.35,1.35,0,0,1,.42.63h1a2.39,2.39,0,0,0-.71-1.3,2.11,2.11,0,0,0-1.46-.53,2.2,2.2,0,0,0-1.94,1.11,1.93,1.93,0,0,0-.21.59,10.85,10.85,0,0,0-.06,1.44,11.06,11.06,0,0,0,.06,1.44,1.93,1.93,0,0,0,.09.33l.12.26a2.07,2.07,0,0,0,.72.76,2.22,2.22,0,0,0,1.22.35,2.17,2.17,0,0,0,2.2-2.19v-1.26H91.84v.88H93.1v.33a1.29,1.29,0,0,1-.37.93,1.2,1.2,0,0,1-.9.38,1.15,1.15,0,0,1-.57-.14,1.22,1.22,0,0,1-.39-.31,1.09,1.09,0,0,1-.24-.52,11,11,0,0,1,0-2.48A1,1,0,0,1,90.87,251.15Z"/><polygon class="cls-29" points="100.34 249.81 100.34 255.99 104.28 255.99 104.28 255.11 101.27 255.11 101.27 249.81 100.34 249.81"/><rect class="cls-30" x="110.37" y="249.81" width="0.94" height="6.18"/><polygon class="cls-31" points="118.76 251.6 118.78 251.6 121.57 255.99 122.46 255.99 122.46 249.81 121.52 249.81 121.52 254.2 121.5 254.2 118.7 249.81 117.82 249.81 117.82 255.99 118.76 255.99 118.76 251.6"/><polygon class="cls-32" points="132.92 250.7 132.92 249.81 128.97 249.81 128.97 255.99 132.92 255.99 132.92 255.11 129.91 255.11 129.91 253.29 132.48 253.29 132.48 252.46 129.91 252.46 129.91 250.7 132.92 250.7"/><path class="cls-33" d="M146.24,254.67a2,2,0,0,0,.12.26,2.07,2.07,0,0,0,.72.76,2.22,2.22,0,0,0,1.22.35,2.17,2.17,0,0,0,2.2-2.19v-1.26h-2.19v.88h1.25v.33a1.24,1.24,0,0,1-.36.93,1.2,1.2,0,0,1-.9.38,1.15,1.15,0,0,1-.57-.14,1.22,1.22,0,0,1-.39-.31,1.09,1.09,0,0,1-.24-.52,11,11,0,0,1,0-2.48,1,1,0,0,1,.24-.51,1.12,1.12,0,0,1,.39-.32,1.26,1.26,0,0,1,.57-.13,1.17,1.17,0,0,1,.76.26,1.35,1.35,0,0,1,.42.63h1a2.39,2.39,0,0,0-.71-1.3,2.29,2.29,0,0,0-2.68-.18,2.15,2.15,0,0,0-.72.76,1.93,1.93,0,0,0-.21.59,10.85,10.85,0,0,0-.06,1.44,11.06,11.06,0,0,0,.06,1.44A1.31,1.31,0,0,0,146.24,254.67Z"/><path class="cls-34" d="M156.74,254.67l.12.26a2.07,2.07,0,0,0,.72.76,2.22,2.22,0,0,0,1.22.35,2.26,2.26,0,0,0,1.23-.35,1.93,1.93,0,0,0,.7-.76,1.37,1.37,0,0,0,.22-.59,11.06,11.06,0,0,0,.06-1.44,10.85,10.85,0,0,0-.06-1.44,1.37,1.37,0,0,0-.22-.59,2,2,0,0,0-.7-.76,2.18,2.18,0,0,0-1.23-.35,2.2,2.2,0,0,0-1.94,1.11,1.7,1.7,0,0,0-.2.59,8.89,8.89,0,0,0-.07,1.44,9.06,9.06,0,0,0,.07,1.44A2,2,0,0,0,156.74,254.67Zm.86-3a1,1,0,0,1,.24-.51,1.12,1.12,0,0,1,.39-.32,1.26,1.26,0,0,1,.57-.13,1.31,1.31,0,0,1,.58.13,1.08,1.08,0,0,1,.38.32,1,1,0,0,1,.24.51,11,11,0,0,1,0,2.48,1.09,1.09,0,0,1-.24.52,1.23,1.23,0,0,1-1,.45,1.15,1.15,0,0,1-.57-.14,1.22,1.22,0,0,1-.39-.31,1.09,1.09,0,0,1-.24-.52,11,11,0,0,1,0-2.48Z"/><polygon class="cls-35" points="171.25 250.7 171.25 249.81 167.31 249.81 167.31 255.99 171.25 255.99 171.25 255.11 168.25 255.11 168.25 253.29 170.81 253.29 170.81 252.46 168.25 252.46 168.25 250.7 171.25 250.7"/><path class="cls-36" d="M179.18,255.11a2.72,2.72,0,0,1-1.76-.62l-.61.71a3.52,3.52,0,0,0,2.36.84c1.42,0,2.14-.61,2.17-1.79a1.79,1.79,0,0,0-.41-1.16,2,2,0,0,0-1.29-.62l-.69-.1a1.2,1.2,0,0,1-.67-.3.69.69,0,0,1-.2-.49.77.77,0,0,1,.31-.67,1.18,1.18,0,0,1,.72-.21,2.9,2.9,0,0,1,1.53.47l.52-.77a3.51,3.51,0,0,0-2-.64,2.12,2.12,0,0,0-1.48.5,1.7,1.7,0,0,0-.54,1.31,1.65,1.65,0,0,0,.43,1.14,2,2,0,0,0,1.22.59l.81.12c.55.09.81.37.81.83S180,255.1,179.18,255.11Z"/><polygon class="cls-37" points="199.15 255.99 199.15 249.81 198.21 249.81 198.21 252.46 195.76 252.46 195.76 249.81 194.83 249.81 194.83 255.99 195.76 255.99 195.76 253.29 198.21 253.29 198.21 255.99 199.15 255.99"/><polygon class="cls-38" points="209.61 250.7 209.61 249.81 205.66 249.81 205.66 255.99 209.61 255.99 209.61 255.11 206.6 255.11 206.6 253.29 209.17 253.29 209.17 252.46 206.6 252.46 206.6 250.7 209.61 250.7"/><path class="cls-39" d="M220,251.54a1.67,1.67,0,0,0-.62-1.32,1.89,1.89,0,0,0-1.26-.41H215.7V256h.94v-2.64h1.19l1.28,2.64h1.11l-1.43-2.74A1.71,1.71,0,0,0,220,251.54Zm-1.15.68a1,1,0,0,1-.79.3h-1.41v-1.87h1.46a1.07,1.07,0,0,1,.69.19.81.81,0,0,1,.31.7A1,1,0,0,1,218.84,252.22Z"/><polygon class="cls-40" points="230.15 250.7 230.15 249.81 226.21 249.81 226.21 255.99 230.15 255.99 230.15 255.11 227.14 255.11 227.14 253.29 229.71 253.29 229.71 252.46 227.14 252.46 227.14 250.7 230.15 250.7"/></g></svg>